<?xml version="1.0" encoding="UTF-8" standalone="no"?>
<svg
   xmlns:dc="http://purl.org/dc/elements/1.1/"
   xmlns:cc="http://creativecommons.org/ns#"
   xmlns:rdf="http://www.w3.org/1999/02/22-rdf-syntax-ns#"
   xmlns:svg="http://www.w3.org/2000/svg"
   xmlns="http://www.w3.org/2000/svg"
   xmlns:sodipodi="http://sodipodi.sourceforge.net/DTD/sodipodi-0.dtd"
   xmlns:inkscape="http://www.inkscape.org/namespaces/inkscape"
   width="512"
   height="512"
   viewBox="0 0 512 512"
   id="svg2"
   version="1.1"
   inkscape:version="0.91 r13725"
   sodipodi:docname="apple.svg">
  <metadata
     id="metadata19">
    <rdf:RDF>
      <cc:Work
         rdf:about="">
        <dc:format>image/svg+xml</dc:format>
        <dc:type
           rdf:resource="http://purl.org/dc/dcmitype/StillImage" />
      </cc:Work>
    </rdf:RDF>
  </metadata>
  <defs
     id="defs17" />
  <sodipodi:namedview
     pagecolor="#ffffff"
     bordercolor="#666666"
     borderopacity="1"
     objecttolerance="10"
     gridtolerance="10"
     guidetolerance="10"
     inkscape:pageopacity="0"
     inkscape:pageshadow="2"
     inkscape:window-width="1680"
     inkscape:window-height="988"
     id="namedview15"
     showgrid="false"
     inkscape:zoom="0.69411765"
     inkscape:cx="-153.05843"
     inkscape:cy="80.029009"
     inkscape:window-x="-8"
     inkscape:window-y="-8"
     inkscape:window-maximized="1"
     inkscape:current-layer="svg2" />
  <g
     id="icono"
     transform="matrix(3.1610136,0,0,3.1610136,-15.127191,-12.483077)">
    <title
       id="title5">Layer 1</title>
    <g
       id="svg_1">
      <path
		 class="mosaic-area-icono-apple"
         d="m 127.80597,90.003128 c 0.22484,24.213102 21.24129,32.270612 21.47412,32.373462 -0.1777,0.56826 -3.35808,11.48274 -11.07246,22.75662 -6.66875,9.74684 -13.59003,19.45798 -24.49309,19.6591 -10.71335,0.1974 -14.158289,-6.35304 -26.406679,-6.35304 -12.24469,0 -16.072174,6.1519 -26.213551,6.55044 C 50.57009,165.38797 42.556007,154.4498 35.83184,144.73866 22.091819,124.87421 11.5916,88.606376 25.69074,64.124999 32.694892,51.967448 45.211841,44.268779 58.79787,44.071361 c 10.334515,-0.197132 20.089069,6.952717 26.406689,6.952717 6.313614,0 18.167471,-8.59832 30.629001,-7.335548 5.21682,0.217129 19.86052,2.1073 29.26364,15.871029 -0.75766,0.469692 -17.47293,10.200527 -17.29123,30.443592 m -20.1345,-59.456692 c 5.58738,-6.7633 9.34801,-16.178439 8.32207,-25.546439 -8.05379,0.32369 -17.792628,5.36682 -23.56943,12.126399 -5.177124,5.985922 -9.711121,15.566772 -8.48777,24.749359 8.976891,0.69453 18.14748,-4.561718 23.73513,-11.329308"
         id="path8"
         inkscape:connector-curvature="0" />
    </g>
  </g>
  <g
     id="hover">
    <rect
       id="rectHover"
       width="515.06812"
       height="271.18643"
       x="-1.1016945"
       y="515"
       class="mosaic-rect-area-out" />
    <text
       xml:space="preserve"
       style="font-style:normal;font-variant:normal;font-weight:normal;font-stretch:normal;font-size:142.74999604px;line-height:125%;font-family:Arial;-inkscape-font-specification:'Arial, Normal';text-align:center;letter-spacing:0px;word-spacing:0px;writing-mode:lr;text-anchor:middle;fill:#800080;fill-opacity:1;stroke:none;stroke-width:1px;stroke-linecap:butt;stroke-linejoin:miter;stroke-opacity:1;"
       x="238.0239"
       y="452.5437"
       id="textHover"
       sodipodi:linespacing="125%"
       transform="scale(1.0785703,0.92715329)"
       class="mosaic-text-area"><tspan
         sodipodi:role="line"
         id="tspan4147">IOS</tspan></text>
  </g>
</svg>
