<?xml version="1.0" encoding="UTF-8" standalone="no"?>
<!-- Creator: CorelDRAW X7 -->

<svg
   xmlns:dc="http://purl.org/dc/elements/1.1/"
   xmlns:cc="http://creativecommons.org/ns#"
   xmlns:rdf="http://www.w3.org/1999/02/22-rdf-syntax-ns#"
   xmlns:svg="http://www.w3.org/2000/svg"
   xmlns="http://www.w3.org/2000/svg"
   xmlns:sodipodi="http://sodipodi.sourceforge.net/DTD/sodipodi-0.dtd"
   xmlns:inkscape="http://www.inkscape.org/namespaces/inkscape"
   xml:space="preserve"
   width="1000px"
   height="1000px"
   version="1.0"
   style="shape-rendering:geometricPrecision; text-rendering:geometricPrecision; image-rendering:optimizeQuality; fill-rule:evenodd; clip-rule:evenodd"
   viewBox="0 0 1000 1000"
   id="svg4293"
   inkscape:version="0.91 r13725"
   sodipodi:docname="c++.svg"><metadata
     id="metadata4310"><rdf:RDF><cc:Work
         rdf:about=""><dc:format>image/svg+xml</dc:format><dc:type
           rdf:resource="http://purl.org/dc/dcmitype/StillImage" /><dc:title /></cc:Work></rdf:RDF></metadata><sodipodi:namedview
     pagecolor="#ffffff"
     bordercolor="#666666"
     borderopacity="1"
     objecttolerance="10"
     gridtolerance="10"
     guidetolerance="10"
     inkscape:pageopacity="0"
     inkscape:pageshadow="2"
     inkscape:window-width="1680"
     inkscape:window-height="988"
     id="namedview4308"
     showgrid="false"
     inkscape:zoom="0.22392792"
     inkscape:cx="-570.02343"
     inkscape:cy="500"
     inkscape:window-x="-8"
     inkscape:window-y="-8"
     inkscape:window-maximized="1"
     inkscape:current-layer="svg4293" /><g
     id="icono"
     transform="matrix(1.2583002,0,0,1.2583002,-108.12445,-98.85512)"><metadata
       id="CorelCorpID_0Corel-Layer" /><path
       class="mosaic-area-icono-c"
       d="M 732,813 C 673,848 602,865 521,865 411,865 322,830 254,761 186,693 153,603 153,493 153,371 189,273 262,198 334,124 432,87 554,87 c 67,0 127,12 179,36 l 0,156 c -52,-38 -107,-58 -166,-58 -71,0 -129,24 -174,72 -46,49 -69,112 -69,189 0,77 22,138 65,183 43,44 100,66 172,66 60,0 117,-21 171,-64 l 0,146 z"
       id="path4301"
       fill="#1a1a1a"
       inkscape:connector-curvature="0" /><path
       class="mosaic-area-icono-c"
       d="m 489,573 0,-75 -74,0 0,-31 74,0 0,-74 32,0 0,74 74,0 0,31 -74,0 0,75 -32,0 z"
       id="path4303"
       fill="#1a1a1a"
       inkscape:connector-curvature="0" /><path
       id="1"
       class="mosaic-area-icono-c"
       d="m 711,573 0,-75 -74,0 0,-31 74,0 0,-74 31,0 0,74 75,0 0,31 -75,0 0,75 -31,0 z"
       fill="#1a1a1a"
       inkscape:connector-curvature="0" /></g><g
     id="hover"><rect
       id="rectHover"
       width="1010.7634"
       height="632.90997"
       x="0.33898354"
       y="1010"
       class="mosaic-rect-area-out" /><text
       xml:space="preserve"
       style="font-style:normal;font-variant:normal;font-weight:normal;font-stretch:normal;font-size:294.2456665px;line-height:125%;font-family:Arial;-inkscape-font-specification:'Arial, Normal';text-align:center;letter-spacing:0px;word-spacing:0px;writing-mode:lr-tb;text-anchor:middle;fill:#800080;fill-opacity:1;stroke:none;stroke-width:1px;stroke-linecap:butt;stroke-linejoin:miter;stroke-opacity:1"
       x="472.37973"
       y="883.69745"
       id="textHover"
       sodipodi:linespacing="125%"
       transform="scale(1.0785703,0.92715329)"
       class="mosaic-text-area"><tspan
         sodipodi:role="line"
         id="tspan4147"
         x="472.37973"
         y="883.69745">Unix</tspan></text>
</g></svg>