<?xml version="1.0" encoding="UTF-8" standalone="no"?>
<!-- Generator: Adobe Illustrator 15.0.2, SVG Export Plug-In . SVG Version: 6.00 Build 0)  -->

<svg
   xmlns:dc="http://purl.org/dc/elements/1.1/"
   xmlns:cc="http://creativecommons.org/ns#"
   xmlns:rdf="http://www.w3.org/1999/02/22-rdf-syntax-ns#"
   xmlns:svg="http://www.w3.org/2000/svg"
   xmlns="http://www.w3.org/2000/svg"
   xmlns:sodipodi="http://sodipodi.sourceforge.net/DTD/sodipodi-0.dtd"
   xmlns:inkscape="http://www.inkscape.org/namespaces/inkscape"
   version="1.1"
   id="Layer_1"
   x="0px"
   y="0px"
   width="1024px"
   height="1024px"
   viewBox="0 0 1024 1024"
   enable-background="new 0 0 1024 1024"
   xml:space="preserve"
   inkscape:version="0.91 r13725"
   sodipodi:docname="leadership.svg"><metadata
     id="metadata33"><rdf:RDF><cc:Work
         rdf:about=""><dc:format>image/svg+xml</dc:format><dc:type
           rdf:resource="http://purl.org/dc/dcmitype/StillImage" /></cc:Work></rdf:RDF></metadata><defs
     id="defs31" /><sodipodi:namedview
     pagecolor="#ffffff"
     bordercolor="#666666"
     borderopacity="1"
     objecttolerance="10"
     gridtolerance="10"
     guidetolerance="10"
     inkscape:pageopacity="0"
     inkscape:pageshadow="2"
     inkscape:window-width="1680"
     inkscape:window-height="988"
     id="namedview29"
     showgrid="false"
     inkscape:zoom="0.23046875"
     inkscape:cx="-266.84746"
     inkscape:cy="512"
     inkscape:window-x="-8"
     inkscape:window-y="-8"
     inkscape:window-maximized="1"
     inkscape:current-layer="Layer_1" /><g
     id="icono"><path
       d="M 512,332.2 C 582.4,332.2 639.6,275 639.6,204.6 639.6,134.4 582.2,77 512,77 c -70.2,0 -127.6,57.2 -127.6,127.6 0,70.4 57.2,127.6 127.6,127.6 z"
       id="path4" class="mosaic-area-icono-leadership"
       inkscape:connector-curvature="0"
       fill="#9b1824" /><path
       d="M267.8,422.2c47.4,0,86.2-38.6,86.2-86.2c0-47.8-38.8-86.4-86.2-86.4c-47.6,0-86.4,38.8-86.4,86.4S220.2,422.2,267.8,422.2   z"
       fill="#9b1824"
       id="path6" class="mosaic-area-icono-leadership" /><path
       d="M95.4,471c32,0,58-26,58-58c-0.2-32-26.2-58-58-58c-32,0-58,26-58,58S63.4,471,95.4,471z"
       fill="#9b1824"
       id="path8" class="mosaic-area-icono-leadership"/><path
       d="M928.8,471c32,0,58-26,58-58s-26-58-58-58s-58,26-58,58S896.8,471,928.8,471z"
       fill="#9b1824"
       id="path10" class="mosaic-area-icono-leadership" /><path
       d="M756.2,422.2c47.6,0,86.399-38.6,86.399-86.2c0-47.8-38.8-86.4-86.399-86.4c-47.601,0-86.2,38.8-86.2,86.4   S708.6,422.2,756.2,422.2z"
       fill="#9b1824"
       id="path12" class="mosaic-area-icono-leadership" /><path
       d="M928.8,503.8c-9.2,0-18.2,1.8-26.8,4.4c14.6,25,23.8,53.8,23.8,85v181h98.2v-175C1024,546.6,981.2,503.8,928.8,503.8z"
       fill="#9b1824"
       id="path14" class="mosaic-area-icono-leadership" /><path
       d="M756.2,455.4c-13.601,0-26.4,2.6-38.8,6.199C733.6,493.2,743.6,528.4,743.6,566.2v275.2H894V593.2   C894,517.2,832.2,455.4,756.2,455.4z"
       fill="#9b1824"
       id="path16" class="mosaic-area-icono-leadership" /><path
       d="M511.8,366.2c-110.399,0-200,89.8-200,200v355h400v-355C711.8,455.8,622,366.2,511.8,366.2z"
       fill="#9b1824"
       id="path18" class="mosaic-area-icono-leadership" /><path
       d="M0,599.2v175h98.4v-181c0-31,9-60,23.8-85c-8.6-2.601-17.4-4.4-26.8-4.4C42.8,503.8,0,546.6,0,599.2z"
       fill="#9b1824"
       id="path20" class="mosaic-area-icono-leadership" /><path
       d="M129.8,593.2v248.2h150.6V566.2c0-37.8,10-73,26-104.601c-12.4-3.6-25.2-6.199-38.8-6.199   C191.6,455.4,129.8,517.2,129.8,593.2z"
       fill="#9b1824"
       id="path22" class="mosaic-area-icono-leadership" /></g><g
     id="hover"><rect
       id="rectHover"
       width="1031.4071"
       height="583.5932"
       x="0.33898354"
       y="1040"
       class="mosaic-rect-area-out" /><text
       xml:space="preserve"
       style="font-style:normal;font-variant:normal;font-weight:normal;font-stretch:normal;font-size:269.36250977px;line-height:125%;font-family:Arial;-inkscape-font-specification:'Arial, Normal';text-align:center;letter-spacing:0px;word-spacing:0px;writing-mode:lr;text-anchor:middle;fill:#800080;fill-opacity:1;stroke:none;stroke-width:1px;stroke-linecap:butt;stroke-linejoin:miter;stroke-opacity:1;"
       x="629.36182"
       y="700.54633"
       id="textHover"
       sodipodi:linespacing="125%"
       transform="scale(0.81337122,1.2294509)"
       class="mosaic-text-area"><tspan
         sodipodi:role="line"
         id="tspan4163">Gestión</tspan></text>
</g></svg>