<?xml version="1.0" encoding="UTF-8" standalone="no"?>
<!-- Generator: Adobe Illustrator 13.0.0, SVG Export Plug-In . SVG Version: 6.00 Build 14948)  -->

<svg
   xmlns:dc="http://purl.org/dc/elements/1.1/"
   xmlns:cc="http://creativecommons.org/ns#"
   xmlns:rdf="http://www.w3.org/1999/02/22-rdf-syntax-ns#"
   xmlns:svg="http://www.w3.org/2000/svg"
   xmlns="http://www.w3.org/2000/svg"
   xmlns:sodipodi="http://sodipodi.sourceforge.net/DTD/sodipodi-0.dtd"
   xmlns:inkscape="http://www.inkscape.org/namespaces/inkscape"
   version="1.1"
   id="Layer_1"
   x="0px"
   y="0px"
   width="550"
   height="550"
   viewBox="0 0 550 550"
   xml:space="preserve"
   inkscape:version="0.91 r13725"
   sodipodi:docname="java.svg"><metadata
     id="metadata35"><rdf:RDF><cc:Work
         rdf:about=""><dc:format>image/svg+xml</dc:format><dc:type
           rdf:resource="http://purl.org/dc/dcmitype/StillImage" /></cc:Work></rdf:RDF></metadata><defs
     id="defs33" /><sodipodi:namedview
     pagecolor="#ffffff"
     bordercolor="#666666"
     borderopacity="1"
     objecttolerance="10"
     gridtolerance="10"
     guidetolerance="10"
     inkscape:pageopacity="0"
     inkscape:pageshadow="2"
     inkscape:window-width="1680"
     inkscape:window-height="988"
     id="namedview31"
     showgrid="false"
     inkscape:zoom="0.42909091"
     inkscape:cx="-353.07203"
     inkscape:cy="275"
     inkscape:window-x="-8"
     inkscape:window-y="-8"
     inkscape:window-maximized="1"
     inkscape:current-layer="Layer_1" /><g
     id="icono"
     transform="translate(124,0)"><path class="mosaic-area-icono-java-humo" 
       fill="#e76f00"
       d="m 285.104,430.945 -2.038,0 0,-1.14 5.486,0 0,1.14 -2.024,0 0,5.688 -1.424,0 0,-5.688 z m 10.942,0.297 -0.032,0 -2.019,5.392 -0.924,0 -2.006,-5.392 -0.025,0 0,5.392 -1.342,0 0,-6.828 1.975,0 1.86,4.835 1.854,-4.835 1.968,0 0,6.828 -1.31,0 0,-5.392 z"
       id="path5"
       inkscape:connector-curvature="0" /><path class="mosaic-area-icono-java-taza" 
       fill="#5382a1"
       d="m 102.681,291.324 c 0,0 -14.178,8.245 10.09,11.035 29.4,3.354 44.426,2.873 76.825,-3.259 0,0 8.518,5.341 20.414,9.967 -72.63,31.128 -164.376,-1.803 -107.329,-17.743"
       id="path7"
       inkscape:connector-curvature="0" /><path class="mosaic-area-icono-java-taza" 
       fill="#5382a1"
       d="m 93.806,250.704 c 0,0 -15.902,11.771 8.384,14.283 31.406,3.24 56.208,3.505 99.125,-4.759 0,0 5.936,6.018 15.27,9.309 -87.814,25.678 -185.623,2.025 -122.779,-18.833"
       id="path9"
       inkscape:connector-curvature="0" /><path class="mosaic-area-icono-java-humo" 
       fill="#e76f00"
       d="m 168.625,181.799 c 17.896,20.604 -4.702,39.145 -4.702,39.145 0,0 45.441,-23.458 24.572,-52.833 -19.491,-27.394 -34.438,-41.005 46.479,-87.934 0,0 -127.013,31.722 -66.349,101.622"
       id="path11"
       inkscape:connector-curvature="0" /><path class="mosaic-area-icono-java-taza" 
       fill="#5382a1"
       d="m 264.684,321.369 c 0,0 10.492,8.645 -11.555,15.333 -41.923,12.7 -174.488,16.535 -211.314,0.506 -13.238,-5.759 11.587,-13.751 19.396,-15.428 8.144,-1.766 12.798,-1.437 12.798,-1.437 -14.722,-10.371 -95.157,20.364 -40.857,29.166 148.084,24.015 269.943,-10.814 231.532,-28.14"
       id="path13"
       inkscape:connector-curvature="0" /><path class="mosaic-area-icono-java-taza" 
       fill="#5382a1"
       d="m 109.499,208.617 c 0,0 -67.431,16.016 -23.879,21.832 18.389,2.462 55.047,1.905 89.193,-0.956 27.906,-2.354 55.927,-7.359 55.927,-7.359 0,0 -9.84,4.214 -16.959,9.075 -68.475,18.009 -200.756,9.631 -162.674,-8.79 32.206,-15.568 58.392,-13.802 58.392,-13.802"
       id="path15"
       inkscape:connector-curvature="0" /><path class="mosaic-area-icono-java-taza" 
       fill="#5382a1"
       d="m 230.462,276.231 c 69.608,-36.171 37.424,-70.931 14.96,-66.248 -5.506,1.146 -7.961,2.139 -7.961,2.139 0,0 2.044,-3.202 5.948,-4.588 44.441,-15.624 78.619,46.081 -14.346,70.52 0,0.001 1.077,-0.962 1.399,-1.823"
       id="path17"
       inkscape:connector-curvature="0" /><path class="mosaic-area-icono-java-humo" 
       fill="#e76f00"
       d="m 188.495,4.399 c 0,0 38.55,38.563 -36.563,97.862 -60.233,47.568 -13.735,74.69 -0.025,105.678 C 116.748,176.217 90.946,148.292 108.256,122.302 133.663,84.151 204.049,65.654 188.495,4.399"
       id="path19"
       inkscape:connector-curvature="0" /><path class="mosaic-area-icono-java-taza" 
       fill="#5382a1"
       d="m 116.339,374.246 c 66.815,4.277 169.417,-2.373 171.847,-33.988 0,0 -4.671,11.985 -55.219,21.503 -57.028,10.732 -127.364,9.479 -169.081,2.601 10e-4,-0.001 8.54,7.068 52.453,9.884"
       id="path21"
       inkscape:connector-curvature="0" /><path class="mosaic-area-icono-java-humo" 
       fill="#e76f00"
       d="m 105.389,495.048 c -6.303,5.467 -12.96,8.536 -18.934,8.536 -8.527,0 -13.134,-5.113 -13.134,-13.314 0,-8.871 4.936,-15.357 24.739,-15.357 l 7.328,0 0,20.135 m 17.393,19.623 0,-60.742 c 0,-15.517 -8.85,-25.756 -30.188,-25.756 -12.457,0 -23.369,3.076 -32.238,6.999 l 2.56,10.752 c 6.983,-2.563 16.022,-4.949 24.894,-4.949 12.292,0 17.58,4.949 17.58,15.181 l 0,7.677 -6.135,0 c -29.865,0 -43.337,11.593 -43.337,28.994 0,15.017 8.878,23.553 25.594,23.553 10.745,0 18.766,-4.436 26.264,-10.928 l 1.361,9.22 13.645,0 z"
       id="path23"
       inkscape:connector-curvature="0" /><path class="mosaic-area-icono-java-humo" 
       fill="#e76f00"
       d="m 180.825,514.671 -21.692,0 -26.106,-84.96 18.943,0 16.199,52.2 3.601,15.699 c 8.195,-22.698 13.991,-45.726 16.89,-67.899 l 18.427,0 c -4.937,27.977 -13.821,58.685 -26.262,84.96"
       id="path25"
       inkscape:connector-curvature="0" /><path class="mosaic-area-icono-java-humo" 
       fill="#e76f00"
       d="m 264.038,495.048 c -6.315,5.467 -12.984,8.536 -18.958,8.536 -8.512,0 -13.131,-5.113 -13.131,-13.314 0,-8.871 4.948,-15.357 24.749,-15.357 l 7.34,0 0,20.135 m 17.39,19.623 0,-60.742 c 0,-15.517 -8.872,-25.756 -30.185,-25.756 -12.466,0 -23.382,3.076 -32.247,6.999 l 2.556,10.752 c 6.986,-2.563 16.042,-4.949 24.907,-4.949 12.283,0 17.579,4.949 17.579,15.181 l 0,7.677 -6.145,0 c -29.874,0 -43.34,11.593 -43.34,28.994 0,15.017 8.871,23.553 25.584,23.553 10.751,0 18.769,-4.436 26.28,-10.928 l 1.366,9.22 13.645,0 z"
       id="path27"
       inkscape:connector-curvature="0" /><path class="mosaic-area-icono-java-humo" 
       fill="#e76f00"
       d="m 36.847,529.099 c -4.958,7.239 -12.966,12.966 -21.733,16.206 L 6.527,535.2 c 6.673,-3.424 12.396,-8.954 15.055,-14.105 2.3,-4.581 3.252,-10.485 3.252,-24.604 l 0,-96.995 18.478,0 0,95.666 c -10e-4,18.876 -1.51,26.501 -6.465,33.937"
       id="path29"
       inkscape:connector-curvature="0" /></g><g
     id="hover"
     transform="matrix(1.0678699,0,0,1.06875,-1.0145322,3.4440677)"><rect
       id="rectHover"
       width="515.06812"
       height="271.18643"
       x="0.33898354"
       y="560"
       class="mosaic-rect-area-out" /><text
       xml:space="preserve"
       style="font-style:normal;font-variant:normal;font-weight:normal;font-stretch:normal;font-size:142.74884623px;line-height:125%;font-family:Arial;-inkscape-font-specification:'Arial, Normal';text-align:center;letter-spacing:0px;word-spacing:0px;writing-mode:lr;text-anchor:middle;fill:#800080;fill-opacity:1;stroke:none;stroke-width:1px;stroke-linecap:butt;stroke-linejoin:miter;stroke-opacity:1;"
       x="238.0239"
       y="452.5437"
       id="textHover"
       sodipodi:linespacing="125%"
       transform="scale(1.0785703,0.92715329)"
       class="mosaic-text-area"><tspan
         sodipodi:role="line"
         id="tspan4151">Java</tspan></text>
</g></svg>