<?xml version="1.0" encoding="utf-8"?>
<!-- Generator: Adobe Illustrator 15.0.0, SVG Export Plug-In  -->
<!DOCTYPE svg PUBLIC "-//W3C//DTD SVG 1.1//EN" "http://www.w3.org/Graphics/SVG/1.1/DTD/svg11.dtd" [
	<!ENTITY ns_flows "http://ns.adobe.com/Flows/1.0/">
]>
<svg version="1.1"
	 xmlns="http://www.w3.org/2000/svg" xmlns:xlink="http://www.w3.org/1999/xlink" xmlns:a="http://ns.adobe.com/AdobeSVGViewerExtensions/3.0/"
	 x="0px" y="0px" width="286px" height="287px" viewBox="292.5 -5.345 286 287" enable-background="new 292.5 -5.345 286 287"
	 xml:space="preserve">
<defs>
</defs>
<g>
	<path fill="#DD3432" d="M435.447,274.333c-74.256,0-134.668-60.411-134.668-134.667C300.779,65.411,361.191,5,435.447,5
		c74.255,0,134.666,60.411,134.666,134.667C570.113,213.922,509.702,274.333,435.447,274.333z"/>
	<path fill="#DC3632" d="M435.447,10c71.611,0,129.666,58.054,129.666,129.667c0,71.613-58.055,129.667-129.666,129.667
		c-71.614,0-129.668-58.054-129.668-129.667C305.779,68.054,363.833,10,435.447,10 M435.447,0c-37.307,0-72.381,14.528-98.76,40.907
		c-26.38,26.379-40.908,61.453-40.908,98.759c0,37.307,14.528,72.38,40.908,98.76c26.379,26.379,61.454,40.907,98.76,40.907
		c37.306,0,72.379-14.528,98.758-40.908c26.38-26.379,40.908-61.453,40.908-98.759s-14.528-72.379-40.908-98.759
		C507.826,14.528,472.753,0,435.447,0L435.447,0z"/>
</g>
<path display="none" d="M30,442.742c-16.568,0-30-13.432-30-30v-120.29c0-82.87,67.42-150.29,150.29-150.29
	s150.29,67.42,150.29,150.29c0,16.568-13.432,30-30,30s-30-13.432-30-30c0-49.786-40.504-90.29-90.29-90.29S60,242.666,60,292.452
	v120.29C60,429.311,46.568,442.742,30,442.742z"/>
<path fill="#FFFFFF" d="M453.059,103.26c2.771,2.772,5.218,5.785,7.323,8.988V89.011c-7.31,0-14.396,1.441-20.94,4.187
	C444.395,95.813,448.982,99.186,453.059,103.26z"/>
<path fill="#FFFFFF" d="M490.712,40.506v102.623c0,16.724-13.606,30.33-30.33,30.33c-16.725,0-30.33-13.606-30.33-30.33
	c0-6.276,1.917-12.115,5.196-16.958c-4.954-6.421-12.632-10.637-21.288-10.897c-5.016,8.326-7.696,17.885-7.696,27.856
	c0,14.456,5.629,28.046,15.852,38.267c10.221,10.222,23.812,15.851,38.267,15.851c14.456,0,28.047-5.629,38.268-15.851
	c10.221-10.221,15.851-23.812,15.851-38.267V40.506H490.712z"/>
<path fill="#FFFFFF" d="M382.778,196.568h-23.789V143.21c0-14.456,5.629-28.045,15.851-38.268
	c10.221-10.221,23.812-15.85,38.267-15.85s28.045,5.629,38.268,15.85c10.222,10.223,15.851,23.812,15.851,38.268h-23.789
	c0-16.724-13.605-30.33-30.329-30.33s-30.33,13.606-30.33,30.33V196.568z"/>
<text transform="matrix(1 0 0 1 351.7476 245.291)" display="none"><tspan x="0" y="0" display="inline" fill="#BE1E2D" font-family="'Oswald-Bold'" font-size="30.1817">ROUGE</tspan><tspan x="84.149" y="0" display="inline" font-family="'Oswald-Bold'" font-size="30.1817">digital</tspan></text>
<path fill="#FFFFFF" d="M346.415,230.631v-28.943h5.892c1.339,0,2.517,0.137,3.534,0.41c1.017,0.273,1.907,0.702,2.671,1.287
	c0.764,0.584,1.344,1.372,1.741,2.364c0.396,0.992,0.595,2.179,0.595,3.562c0,0.601-0.02,1.136-0.06,1.608
	c-0.04,0.472-0.132,1.01-0.275,1.616c-0.144,0.606-0.34,1.142-0.588,1.608s-0.605,0.925-1.071,1.375s-1.017,0.826-1.651,1.125
	c1.607,5.51,3.005,10.173,4.196,13.989h-5.609l-3.065-13.33h-0.893v13.33H346.415z M351.831,213.732h1.547
	c0.417,0,0.774-0.15,1.071-0.45c0.298-0.3,0.514-0.681,0.647-1.142s0.228-0.885,0.283-1.271c0.054-0.386,0.082-0.75,0.082-1.093
	s-0.022-0.697-0.067-1.062c-0.044-0.364-0.124-0.769-0.238-1.214c-0.114-0.445-0.303-0.809-0.565-1.093
	c-0.263-0.284-0.583-0.426-0.96-0.426h-1.8V213.732z"/>
<path fill="#FFFFFF" d="M363.956,221.112v-9.728c0-6.839,2.609-10.259,7.827-10.259c5.228,0,7.841,3.419,7.841,10.259v9.583
	c0,1.158-0.08,2.227-0.238,3.208c-0.159,0.981-0.429,1.911-0.811,2.79c-0.382,0.879-0.868,1.626-1.458,2.243
	c-0.59,0.616-1.336,1.101-2.239,1.455c-0.903,0.354-1.934,0.531-3.095,0.531c-1.151,0-2.178-0.175-3.08-0.523
	c-0.903-0.348-1.647-0.82-2.232-1.415c-0.585-0.595-1.069-1.324-1.451-2.187c-0.382-0.863-0.655-1.782-0.818-2.758
	C364.037,223.337,363.956,222.27,363.956,221.112z M374.208,222.431v-12.51c0-2.851-0.809-4.277-2.425-4.277
	c-0.486,0-0.898,0.131-1.235,0.394c-0.337,0.263-0.585,0.622-0.744,1.078c-0.159,0.456-0.271,0.906-0.335,1.351
	s-0.097,0.93-0.097,1.455v12.51c0,2.841,0.804,4.261,2.411,4.261C373.399,226.692,374.208,225.271,374.208,222.431z"/>
<path fill="#FFFFFF" d="M383.535,219.874v-18.186h5.416v18.009c0,1.029,0.005,1.777,0.015,2.243c0.01,0.466,0.035,1.035,0.074,1.705
	s0.109,1.139,0.208,1.407c0.099,0.268,0.235,0.558,0.409,0.868c0.173,0.311,0.399,0.515,0.677,0.611
	c0.278,0.096,0.615,0.145,1.012,0.145c0.397,0,0.734-0.048,1.012-0.145c0.277-0.097,0.503-0.298,0.677-0.603
	c0.173-0.306,0.31-0.592,0.409-0.86s0.168-0.731,0.208-1.391c0.04-0.659,0.064-1.216,0.074-1.672s0.015-1.192,0.015-2.211
	c0-0.043,0-0.075,0-0.097v-18.009h5.416v18.186c0,0.922-0.025,1.758-0.075,2.509c-0.049,0.75-0.144,1.527-0.283,2.331
	c-0.139,0.804-0.327,1.515-0.565,2.131c-0.238,0.616-0.556,1.206-0.952,1.769c-0.397,0.563-0.865,1.027-1.406,1.391
	c-0.541,0.364-1.193,0.654-1.957,0.868s-1.622,0.322-2.574,0.322c-0.952,0-1.81-0.107-2.574-0.322
	c-0.764-0.214-1.414-0.504-1.949-0.868s-1.002-0.828-1.398-1.391c-0.397-0.563-0.714-1.152-0.952-1.769
	c-0.238-0.616-0.429-1.327-0.573-2.131c-0.144-0.804-0.24-1.581-0.29-2.331C383.56,221.632,383.535,220.796,383.535,219.874z"/>
<path fill="#FFFFFF" d="M403.07,221.579v-10.194c0-6.839,2.634-10.259,7.901-10.259c1.111,0,2.101,0.158,2.969,0.474
	c0.868,0.316,1.594,0.753,2.18,1.311c0.585,0.558,1.066,1.244,1.443,2.058c0.377,0.815,0.649,1.699,0.818,2.653
	c0.168,0.954,0.253,2.005,0.253,3.151v1.705h-5.178v-2.026c0-0.504-0.013-0.946-0.037-1.327c-0.025-0.38-0.087-0.804-0.186-1.27
	s-0.233-0.85-0.402-1.15c-0.168-0.3-0.412-0.552-0.729-0.756c-0.317-0.204-0.694-0.305-1.131-0.305
	c-1.657,0-2.485,1.426-2.485,4.277v12.494c0,2.841,0.828,4.261,2.485,4.261c1.646,0,2.47-1.474,2.47-4.422v-2.315h-3.065v-4.197
	h8.481v14.89h-3.72l-0.685-2.026c-0.457,0.771-1.106,1.396-1.949,1.873c-0.843,0.477-1.711,0.716-2.604,0.716
	c-0.962,0-1.837-0.19-2.626-0.571c-0.789-0.38-1.438-0.885-1.949-1.512c-0.511-0.627-0.94-1.364-1.287-2.211
	c-0.348-0.847-0.595-1.712-0.744-2.597S403.07,222.511,403.07,221.579z"/>
<path fill="#FFFFFF" d="M423.021,230.631v-28.943h11.174v4.02h-5.758v7.879h4.077v4.117h-4.077v8.908h5.758v4.02H423.021z"/>
<path fill="#FFFFFF" d="M436.89,226.653v-12.268c0-1.315,0.383-2.477,1.148-3.485s1.713-1.512,2.842-1.512
	c0.618,0,1.205,0.172,1.76,0.517s1.033,0.798,1.436,1.36v-9.277h4.962v28.642h-4.962v-1.56c-0.393,0.626-0.884,1.12-1.473,1.48
	s-1.212,0.541-1.87,0.541c-1.089,0-2.002-0.443-2.738-1.329S436.89,227.841,436.89,226.653z M444.075,225.905V214.64
	c-0.56-0.795-1.025-1.193-1.398-1.193c-0.55,0-0.825,0.456-0.825,1.368v10.741c0,0.287,0.013,0.523,0.037,0.708
	s0.103,0.363,0.235,0.533c0.133,0.17,0.316,0.255,0.553,0.255C443.099,227.051,443.564,226.669,444.075,225.905z"/>
<path fill="#FFFFFF" d="M454.052,208.052v-5.012h4.962v5.012H454.052z M454.052,230.631v-20.766h4.962v20.766H454.052z"/>
<path fill="#FFFFFF" d="M467.459,225.237c0,0.254,0.169,0.467,0.508,0.636c0.339,0.17,0.777,0.311,1.317,0.422
	s1.137,0.226,1.789,0.342c0.653,0.117,1.309,0.268,1.966,0.454c0.658,0.186,1.257,0.411,1.797,0.676
	c0.539,0.265,0.979,0.637,1.317,1.114c0.339,0.478,0.508,1.035,0.508,1.671c0,0.88-0.12,1.652-0.36,2.315
	c-0.24,0.663-0.56,1.193-0.957,1.591c-0.397,0.398-0.891,0.719-1.479,0.963c-0.59,0.244-1.188,0.411-1.797,0.501
	c-0.608,0.09-1.286,0.135-2.032,0.135c-4.722,0-7.082-1.247-7.082-3.74c0-0.732,0.187-1.461,0.56-2.188
	c0.373-0.726,0.858-1.323,1.457-1.79c-0.402-0.223-0.79-0.485-1.163-0.788s-0.56-0.591-0.56-0.867c0-0.604,0.653-1.803,1.959-3.596
	c-1.002-1.973-1.502-3.957-1.502-5.951c0-1.018,0.11-1.976,0.331-2.872s0.557-1.716,1.009-2.458
	c0.451-0.742,1.063-1.331,1.833-1.766s1.661-0.652,2.673-0.652c1.512,0,2.65,0.44,3.416,1.321c0.716-0.88,1.919-1.321,3.607-1.321
	h0.618l-0.412,3.835c-0.972,0-1.674,0.233-2.105,0.7c0.412,0.796,0.618,2,0.618,3.612c0,0.944-0.13,1.84-0.39,2.689
	c-0.261,0.849-0.634,1.602-1.119,2.26c-0.486,0.658-1.109,1.177-1.87,1.56c-0.761,0.382-1.603,0.573-2.525,0.573
	c-0.177,0-0.397-0.021-0.663-0.064c-0.265-0.042-0.485-0.084-0.662-0.127l-0.266-0.048
	C467.571,224.855,467.459,225.142,467.459,225.237z M467.9,229.375h-0.354c-0.441,0.753-0.662,1.416-0.662,1.989
	c0,0.626,1.089,0.939,3.269,0.939c0.02,0,0.049,0,0.088,0c1.119,0.01,1.679-0.35,1.679-1.082c0-0.255-0.063-0.485-0.191-0.692
	c-0.127-0.207-0.316-0.374-0.566-0.501c-0.251-0.127-0.499-0.233-0.744-0.318s-0.545-0.148-0.897-0.191
	c-0.354-0.042-0.636-0.074-0.847-0.096C468.462,229.401,468.204,229.385,467.9,229.375z M469.432,220.575
	c0.805,0,1.207-1.23,1.207-3.691c0-2.524-0.378-3.787-1.134-3.787c-0.187,0-0.351,0.053-0.493,0.159
	c-0.142,0.106-0.255,0.268-0.338,0.485c-0.084,0.217-0.152,0.44-0.207,0.668c-0.054,0.229-0.093,0.515-0.117,0.859
	s-0.039,0.642-0.044,0.891c-0.006,0.25-0.008,0.56-0.008,0.931C468.298,219.413,468.676,220.575,469.432,220.575z"/>
<path fill="#FFFFFF" d="M480.453,208.052v-5.012h4.963v5.012H480.453z M480.453,230.631v-20.766h4.963v20.766H480.453z"/>
<path fill="#FFFFFF" d="M490.753,223.503v-10.057h-1.413v-3.581h1.413v-6.826h4.962v6.826h2.386v3.581h-2.386v11.345
	c0,0.573,0.099,1,0.295,1.281c0.196,0.281,0.545,0.422,1.046,0.422c0.568,0,1.05-0.032,1.442-0.095v4.153
	c-0.647,0.212-1.693,0.318-3.136,0.318c-0.58,0-1.103-0.074-1.568-0.223c-0.467-0.148-0.859-0.348-1.178-0.597
	c-0.319-0.25-0.595-0.565-0.825-0.947c-0.23-0.382-0.412-0.772-0.545-1.17c-0.132-0.397-0.235-0.862-0.309-1.392
	c-0.074-0.53-0.123-1.023-0.147-1.48C490.766,224.606,490.753,224.086,490.753,223.503z"/>
<path fill="#FFFFFF" d="M510.197,230.631l-0.485-2.148c-0.285,0.965-0.751,1.642-1.399,2.029c-0.647,0.387-1.452,0.581-2.414,0.581
	c-0.707,0-1.325-0.148-1.855-0.445s-0.945-0.698-1.244-1.202c-0.3-0.503-0.521-1.044-0.663-1.623
	c-0.143-0.578-0.213-1.186-0.213-1.822c0-0.721,0.068-1.39,0.206-2.005c0.137-0.615,0.312-1.159,0.522-1.631
	c0.211-0.472,0.506-0.925,0.884-1.36c0.377-0.435,0.745-0.804,1.104-1.106s0.817-0.615,1.377-0.938s1.061-0.594,1.502-0.812
	c0.442-0.217,0.996-0.475,1.664-0.772v-1.75c0-0.732-0.083-1.278-0.25-1.639s-0.452-0.541-0.854-0.541
	c-0.274,0-0.498,0.061-0.67,0.183s-0.292,0.305-0.36,0.549c-0.069,0.244-0.113,0.464-0.133,0.66
	c-0.02,0.197-0.029,0.459-0.029,0.788v1.178h-4.815c0-2.387,0.555-4.219,1.664-5.498s2.719-1.917,4.83-1.917
	c1.473,0,2.763,0.578,3.872,1.734s1.664,2.53,1.664,4.121v9.866c0,1.708,0.211,3.548,0.633,5.521H510.197z M509.196,225.937v-5.107
	c-1.63,1.421-2.444,2.981-2.444,4.678c0,0.424,0.076,0.788,0.229,1.09s0.409,0.454,0.772,0.454c0.207,0,0.41-0.072,0.611-0.215
	c0.201-0.144,0.347-0.268,0.435-0.374S509.02,226.182,509.196,225.937z"/>
<path fill="#FFFFFF" d="M519.054,230.631v-28.642h4.963v28.642H519.054z"/>
</svg>
