<svg x="0px" y="0px" width="403.6px" height="108.8px" viewBox="-10 0 425 110">
<path
         d="m 86.121651,81.62281 q -0.371094,0.09766 -0.703125,0.195313 -0.3125,0.07813 -0.488282,0.136719 -0.175781,0.03906 -0.957031,0.273437 -3.359375,0.996094 -4.453125,0.996094 -1.054687,0 -1.71875,-0.390625 -0.644531,-0.410156 -0.644531,-1.113281 0,-1.152344 0.9375,-2.578125 0.957031,-1.425782 2.03125,-1.835938 1.015625,-0.390625 2.441406,-0.566406 1.425781,-0.195313 3.671875,-0.195313 4.453125,0 6.542969,0.507813 2.109375,0.507812 2.109375,1.582031 0,0.820313 -0.722656,4.0625 -0.703125,3.242188 -1.445313,5.78125 -2.929687,10.46875 -6.71875,17.382811 -0.839844,1.54297 -1.796875,2.61719 -0.957031,1.07422 -1.992187,1.60156 -1.015625,0.54688 -2.128907,0.54688 -1.582031,0 -3.105468,-2.30469 -1.503907,-2.30469 -1.503907,-4.80469 0,-1.83594 0.625,-3.554686 0.644532,-1.738281 1.738282,-2.890625 0.625,-0.585937 1.308593,-1.015625 0.703125,-0.429687 1.054688,-0.429687 0.3125,0 0.488281,0.351562 0.195313,0.351563 0.195313,1.015625 0,0.3125 -0.15625,1.113281 -0.683594,3.710935 -0.683594,6.367185 0,1.44532 0.3125,2.51953 0.703125,-1.1914 1.132812,-2.4414 1.113282,-3.55469 1.835938,-6.562502 1.171875,-4.941406 1.71875,-8.164063 0.546875,-3.242187 1.074219,-8.203125 z"
         style="font-style:normal;font-variant:normal;font-weight:normal;font-stretch:normal;font-size:40px;line-height:125%;font-family:Forte;-inkscape-font-specification:'Forte, Normal';text-align:start;writing-mode:lr-tb;text-anchor:start"
         id="path4165" />
</svg>