<?xml version="1.0" encoding="UTF-8" standalone="no"?>
<!-- Created with Inkscape (http://www.inkscape.org/) -->

<svg
   xmlns:dc="http://purl.org/dc/elements/1.1/"
   xmlns:cc="http://creativecommons.org/ns#"
   xmlns:rdf="http://www.w3.org/1999/02/22-rdf-syntax-ns#"
   xmlns:svg="http://www.w3.org/2000/svg"
   xmlns="http://www.w3.org/2000/svg"
   xmlns:sodipodi="http://sodipodi.sourceforge.net/DTD/sodipodi-0.dtd"
   xmlns:inkscape="http://www.inkscape.org/namespaces/inkscape"
   width="210mm"
   height="297mm"
   viewBox="0 0 744.09448819 1052.3622047"
   id="svg2"
   version="1.1"
   inkscape:version="0.91 r13725"
   sodipodi:docname="paths_words.svg">
  <defs
     id="defs4" />
  <sodipodi:namedview
     id="base"
     pagecolor="#ffffff"
     bordercolor="#666666"
     borderopacity="1.0"
     inkscape:pageopacity="0.0"
     inkscape:pageshadow="2"
     inkscape:zoom="1.01"
     inkscape:cx="244.09097"
     inkscape:cy="800.78478"
     inkscape:document-units="px"
     inkscape:current-layer="layer1"
     showgrid="false"
     inkscape:object-paths="true"
     inkscape:window-width="1680"
     inkscape:window-height="988"
     inkscape:window-x="-8"
     inkscape:window-y="-8"
     inkscape:window-maximized="1" />
  <metadata
     id="metadata7">
    <rdf:RDF>
      <cc:Work
         rdf:about="">
        <dc:format>image/svg+xml</dc:format>
        <dc:type
           rdf:resource="http://purl.org/dc/dcmitype/StillImage" />
        <dc:title></dc:title>
      </cc:Work>
    </rdf:RDF>
  </metadata>
  <g
     inkscape:label="Capa 1"
     inkscape:groupmode="layer"
     id="layer1">
    <g
       style="font-style:normal;font-weight:normal;font-size:40px;line-height:125%;font-family:sans-serif;letter-spacing:0px;word-spacing:0px;fill:#000000;fill-opacity:1;stroke:none;stroke-width:1px;stroke-linecap:butt;stroke-linejoin:miter;stroke-opacity:1"
       id="text4152">
      <path
         d="m 86.121651,81.62281 q -0.371094,0.09766 -0.703125,0.195313 -0.3125,0.07813 -0.488282,0.136719 -0.175781,0.03906 -0.957031,0.273437 -3.359375,0.996094 -4.453125,0.996094 -1.054687,0 -1.71875,-0.390625 -0.644531,-0.410156 -0.644531,-1.113281 0,-1.152344 0.9375,-2.578125 0.957031,-1.425782 2.03125,-1.835938 1.015625,-0.390625 2.441406,-0.566406 1.425781,-0.195313 3.671875,-0.195313 4.453125,0 6.542969,0.507813 2.109375,0.507812 2.109375,1.582031 0,0.820313 -0.722656,4.0625 -0.703125,3.242188 -1.445313,5.78125 -2.929687,10.46875 -6.71875,17.382811 -0.839844,1.54297 -1.796875,2.61719 -0.957031,1.07422 -1.992187,1.60156 -1.015625,0.54688 -2.128907,0.54688 -1.582031,0 -3.105468,-2.30469 -1.503907,-2.30469 -1.503907,-4.80469 0,-1.83594 0.625,-3.554686 0.644532,-1.738281 1.738282,-2.890625 0.625,-0.585937 1.308593,-1.015625 0.703125,-0.429687 1.054688,-0.429687 0.3125,0 0.488281,0.351562 0.195313,0.351563 0.195313,1.015625 0,0.3125 -0.15625,1.113281 -0.683594,3.710935 -0.683594,6.367185 0,1.44532 0.3125,2.51953 0.703125,-1.1914 1.132812,-2.4414 1.113282,-3.55469 1.835938,-6.562502 1.171875,-4.941406 1.71875,-8.164063 0.546875,-3.242187 1.074219,-8.203125 z"
         style="font-style:normal;font-variant:normal;font-weight:normal;font-stretch:normal;font-size:40px;line-height:125%;font-family:Forte;-inkscape-font-specification:'Forte, Normal';text-align:start;writing-mode:lr-tb;text-anchor:start"
         id="path4165" />
      <path
         d="m 108.71931,93.634529 -0.3711,0.117188 q -1.40625,0.390625 -2.03125,0.390625 -0.76172,0 -0.76172,-0.390625 0,-0.136719 0.3125,-0.722657 1.09375,-1.660156 1.09375,-3.125 0,-0.839843 -0.29296,-1.523437 -0.29297,-0.703125 -0.64454,-0.703125 -0.3125,0 -0.95703,0.664062 -1.8164,1.972657 -2.89062,4.042969 -1.05469,2.070313 -1.05469,3.691406 0,1.074219 0.42969,1.777344 0.44922,0.703125 1.11328,0.703125 0.56641,0 2.10937,-1.210937 1.5625,-1.210938 3.4961,-3.203125 l 0.52734,-0.429688 -0.0781,-0.07813 z m -1.17188,4.472656 0,0.07813 -0.0781,-0.07813 q -1.81641,2.128905 -3.33985,3.496095 -1.5039,1.34766 -2.79297,2.03125 -1.26953,0.68359 -2.343746,0.68359 -2.1875,0 -3.613281,-1.46484 -1.425781,-1.46484 -1.425781,-3.710938 0,-1.386719 0.703125,-3.28125 0.703125,-1.894532 1.933594,-3.710938 2.050781,-2.96875 5.156249,-5.039062 3.20313,-2.128907 6.17188,-2.128907 2.5,0 4.10156,1.035157 1.62109,1.015625 1.62109,2.578125 0,1.152343 -0.80078,2.441406 1.05469,0 1.32813,0.234375 0.27343,0.214844 0.27343,1.035156 0,-0.07813 -0.0977,0.800781 -0.11719,1.933594 -0.11719,3.613282 0,0.878906 0.0195,1.328125 0.0195,0.449218 0.0781,1.035156 0.0586,0.585937 0.11718,0.937502 0.15625,0.91797 0.50782,1.8164 -1.17188,1.15235 -2.2461,1.69922 -1.07422,0.52735 -2.1875,0.52735 -3.00781,0 -3.00781,-5.039066 0,-0.585937 0.0391,-0.917969 z"
         style="font-style:normal;font-variant:normal;font-weight:normal;font-stretch:normal;font-size:40px;line-height:125%;font-family:Forte;-inkscape-font-specification:'Forte, Normal';text-align:start;writing-mode:lr-tb;text-anchor:start"
         id="path4167" />
      <path
         d="m 128.30915,87.267342 0.3125,-0.605469 q 0.48828,-1.015625 0.80078,-1.347656 0.33203,-0.332032 0.87891,-0.332032 1.60156,0 1.60156,3.613282 0,1.054687 -0.15625,1.816406 -0.15625,0.761719 -0.52734,1.464844 -0.44922,0.9375 -1.21094,2.148437 -0.76172,1.191406 -1.73828,2.539063 -0.95703,1.328125 -2.05078,2.675781 -1.95313,2.480472 -3.30078,3.632812 -1.34766,1.15234 -2.26563,1.15234 -1.69922,0 -2.42187,-2.07031 -0.50782,-1.30859 -0.9375,-3.164061 -0.41016,-1.855469 -0.64454,-3.75 -0.23437,-1.914062 -0.23437,-3.691406 0,-2.460938 0.42969,-4.140625 0.44922,-1.699219 1.21093,-2.226563 0.6836,-0.390625 1.44532,-0.390625 0.89843,0 1.67968,0.292969 0.80079,0.273438 1.25,0.820313 0.41016,0.410156 0.60547,1.09375 0.21485,0.664062 0.27344,2.050781 0.0781,1.367187 0.0781,3.789062 l 0,0.996094 0,1.875 0,2.207031 0.0781,0 q 0.37109,-0.839843 0.60547,-1.289062 0.625,-1.230469 2.42187,-5.195313 0.3711,-0.839843 1.40625,-3.125 l 0.41016,-0.839843 z"
         style="font-style:normal;font-variant:normal;font-weight:normal;font-stretch:normal;font-size:40px;line-height:125%;font-family:Forte;-inkscape-font-specification:'Forte, Normal';text-align:start;writing-mode:lr-tb;text-anchor:start"
         id="path4169" />
      <path
         d="m 147.35212,93.634529 -0.37109,0.117188 q -1.40625,0.390625 -2.03125,0.390625 -0.76172,0 -0.76172,-0.390625 0,-0.136719 0.3125,-0.722657 1.09375,-1.660156 1.09375,-3.125 0,-0.839843 -0.29297,-1.523437 -0.29297,-0.703125 -0.64453,-0.703125 -0.3125,0 -0.95703,0.664062 -1.81641,1.972657 -2.89063,4.042969 -1.05469,2.070313 -1.05469,3.691406 0,1.074219 0.42969,1.777344 0.44922,0.703125 1.11328,0.703125 0.56641,0 2.10938,-1.210937 1.5625,-1.210938 3.49609,-3.203125 l 0.52734,-0.429688 -0.0781,-0.07813 z m -1.17188,4.472656 0,0.07813 -0.0781,-0.07813 q -1.81641,2.128905 -3.33984,3.496095 -1.50391,1.34766 -2.79297,2.03125 -1.26953,0.68359 -2.34375,0.68359 -2.1875,0 -3.61328,-1.46484 -1.42579,-1.46484 -1.42579,-3.710938 0,-1.386719 0.70313,-3.28125 0.70312,-1.894532 1.93359,-3.710938 2.05078,-2.96875 5.15625,-5.039062 3.20313,-2.128907 6.17188,-2.128907 2.5,0 4.10156,1.035157 1.62109,1.015625 1.62109,2.578125 0,1.152343 -0.80078,2.441406 1.05469,0 1.32813,0.234375 0.27344,0.214844 0.27344,1.035156 0,-0.07813 -0.0977,0.800781 -0.11719,1.933594 -0.11719,3.613282 0,0.878906 0.0195,1.328125 0.0195,0.449218 0.0781,1.035156 0.0586,0.585937 0.11719,0.937502 0.15625,0.91797 0.50781,1.8164 -1.17188,1.15235 -2.2461,1.69922 -1.07421,0.52735 -2.1875,0.52735 -3.00781,0 -3.00781,-5.039066 0,-0.585937 0.0391,-0.917969 z"
         style="font-style:normal;font-variant:normal;font-weight:normal;font-stretch:normal;font-size:40px;line-height:125%;font-family:Forte;-inkscape-font-specification:'Forte, Normal';text-align:start;writing-mode:lr-tb;text-anchor:start"
         id="path4171" />
    </g>
  </g>
</svg>
